<?xml version="1.0" standalone="no"?>
<!DOCTYPE svg PUBLIC "-//W3C//DTD SVG 20010904//EN"
 "http://www.w3.org/TR/2001/REC-SVG-20010904/DTD/svg10.dtd">
<svg version="1.0" xmlns="http://www.w3.org/2000/svg"
 width="814.000000pt" height="586.000000pt" viewBox="0 0 814.000000 586.000000"
 preserveAspectRatio="xMidYMid meet">

<g transform="translate(0.000000,586.000000) scale(0.100000,-0.100000)"
fill="#000000" stroke="none">
<path d="M2753 5851 c-318 -51 -571 -265 -673 -568 -42 -127 -52 -291 -25
-424 60 -298 270 -533 565 -631 89 -30 104 -32 245 -32 116 -1 165 3 215 18
305 85 534 321 606 623 23 95 23 267 1 365 -73 313 -315 561 -619 633 -78 18
-245 27 -315 16z m286 -531 c188 -106 350 -204 361 -217 31 -40 27 -115 -7
-152 -23 -24 -558 -348 -670 -405 -18 -9 -51 -16 -74 -16 -33 0 -47 6 -74 33
l-32 32 -8 416 c-8 463 -8 465 58 495 60 27 91 14 446 -186z"/>
<path d="M2770 5026 c0 -91 2 -166 4 -166 2 0 67 38 145 84 l142 84 -113 63
c-62 34 -128 71 -145 82 l-33 19 0 -166z"/>
<path d="M4575 5850 c-199 -32 -401 -148 -525 -303 -68 -85 -135 -223 -161
-332 -28 -120 -23 -323 11 -430 89 -280 310 -495 585 -569 96 -27 275 -32 375
-12 326 66 580 313 655 637 24 106 22 281 -5 384 -79 305 -307 531 -615 610
-76 19 -241 27 -320 15z m-195 -723 c65 -32 76 -144 18 -192 -43 -37 -116 -35
-159 3 -58 51 -44 165 24 192 32 13 88 12 117 -3z m374 3 c71 -26 86 -139 27
-192 -25 -23 -41 -28 -80 -28 -94 0 -146 83 -104 167 28 57 91 79 157 53z
m406 -17 c40 -35 50 -94 26 -145 -20 -42 -51 -58 -110 -58 -81 0 -128 67 -106
150 21 79 128 108 190 53z"/>
<path d="M2232 3944 c-57 -28 -96 -69 -123 -129 -17 -38 -19 -88 -19 -846 0
-898 -3 -863 69 -937 20 -21 55 -47 76 -57 39 -20 72 -20 1435 -23 1282 -2
1399 -1 1439 14 55 21 116 75 144 128 l22 41 3 815 2 815 -30 61 c-17 35 -45
73 -65 88 -78 60 19 56 -1503 56 l-1398 0 -52 -26z m436 -306 l-3 -93 -92 -3
-93 -3 0 96 0 95 95 0 96 0 -3 -92z m370 0 l-3 -93 -92 -3 -93 -3 0 96 0 95
95 0 96 0 -3 -92z m370 0 l-3 -93 -92 -3 -93 -3 0 96 0 95 95 0 96 0 -3 -92z
m370 0 l-3 -93 -92 -3 -93 -3 0 96 0 95 95 0 96 0 -3 -92z m370 0 l-3 -93 -92
-3 -93 -3 0 96 0 95 95 0 96 0 -3 -92z m370 0 l-3 -93 -92 -3 -93 -3 0 96 0
95 95 0 96 0 -3 -92z m370 0 l-3 -93 -92 -3 -93 -3 0 96 0 95 95 0 96 0 -3
-92z m-28 -775 c0 -463 -2 -501 -19 -539 -22 -49 -78 -97 -130 -113 -52 -15
-1999 -16 -2054 0 -47 13 -115 72 -134 116 -10 26 -13 136 -13 533 l0 500
1175 0 1175 0 0 -497z"/>
<path d="M2574 3287 c-2 -7 -3 -218 -2 -469 3 -443 4 -457 24 -484 11 -15 33
-37 48 -48 27 -21 35 -21 1019 -24 1095 -3 1047 -5 1102 59 l25 31 0 474 0
474 -1105 0 c-897 0 -1107 -2 -1111 -13z"/>
<path d="M5960 3763 c-14 -3 -125 -62 -247 -131 l-222 -127 2 -544 2 -544 215
-125 c199 -116 220 -126 275 -130 51 -3 65 0 94 20 19 12 44 36 55 51 21 28
21 37 24 700 2 370 0 686 -3 704 -14 78 -112 141 -195 126z"/>
<path d="M6990 1599 c-30 -5 -89 -26 -130 -46 -87 -44 -138 -103 -165 -190
-23 -72 -17 -193 12 -252 l20 -41 -148 0 -149 0 0 38 c0 55 19 399 25 450 l5
42 -110 0 -110 0 0 -127 c-1 -117 -9 -262 -26 -465 l-7 -78 255 0 256 0 6 31
c3 17 6 47 6 66 l0 35 51 -46 c70 -63 159 -91 289 -91 175 1 305 66 364 183
l23 46 12 -36 c7 -20 26 -55 42 -78 76 -105 286 -143 545 -99 l62 11 7 161 c3
89 9 172 12 185 l5 22 -146 0 -146 0 0 -70 0 -70 44 0 43 0 -5 -52 c-3 -29
-10 -56 -16 -60 -6 -4 -40 -8 -76 -8 -128 0 -183 59 -178 191 4 92 32 143 105
186 45 26 55 28 158 27 74 -1 124 -6 152 -17 l41 -16 -5 77 c-3 42 -7 78 -8
80 -1 1 -54 8 -118 14 -249 24 -407 -34 -489 -179 l-30 -54 -23 49 c-67 145
-242 215 -455 181z m176 -155 c137 -65 133 -283 -6 -354 -85 -44 -202 -12
-248 66 -33 56 -28 164 10 221 49 74 163 105 244 67z"/>
<path d="M30 1488 c0 -135 -18 -491 -26 -532 l-6 -29 233 5 c210 4 239 7 281
26 50 22 82 62 94 116 l6 30 13 -38 c17 -50 38 -71 99 -101 131 -63 356 -54
467 19 76 51 81 72 105 499 l7 117 -105 0 -104 0 -13 -202 c-13 -229 -22 -269
-65 -305 -26 -22 -37 -25 -84 -21 -63 6 -89 27 -102 84 -8 36 1 272 15 397 l6
47 -104 0 -104 0 -7 -97 c-3 -54 -9 -151 -12 -215 -4 -65 -10 -118 -13 -118
-3 0 -12 14 -20 31 -15 33 -64 69 -96 69 -15 1 -11 6 15 19 49 27 76 59 89
107 19 73 -6 146 -63 180 -28 17 -57 19 -268 22 l-238 3 0 -113z m360 -38 c27
-27 25 -56 -5 -85 -21 -22 -33 -25 -95 -25 l-70 0 0 65 0 65 75 0 c62 0 79 -4
95 -20z m2 -257 c18 -16 25 -77 10 -99 -15 -23 -53 -34 -121 -34 l-71 0 0 75
0 75 82 0 c62 0 86 -4 100 -17z"/>
<path d="M1320 1488 c0 -135 -18 -491 -26 -532 l-6 -29 233 5 c210 4 239 7
281 26 50 22 82 62 94 116 l6 30 13 -38 c17 -50 38 -71 99 -101 131 -63 356
-54 467 19 76 51 81 72 105 499 l7 117 -105 0 -104 0 -13 -202 c-13 -229 -22
-269 -65 -305 -26 -22 -37 -25 -84 -21 -63 6 -89 27 -102 84 -8 36 1 272 15
397 l6 47 -104 0 -104 0 -7 -97 c-3 -54 -9 -151 -12 -215 -4 -65 -10 -118 -13
-118 -3 0 -12 14 -20 31 -15 33 -64 69 -96 69 -15 1 -11 6 15 19 49 27 76 59
89 107 19 73 -6 146 -63 180 -28 17 -57 19 -268 22 l-238 3 0 -113z m360 -38
c27 -27 25 -56 -5 -85 -21 -22 -33 -25 -95 -25 l-70 0 0 65 0 65 75 0 c62 0
79 -4 95 -20z m2 -257 c18 -16 25 -77 10 -99 -15 -23 -53 -34 -121 -34 l-71 0
0 75 0 75 82 0 c62 0 86 -4 100 -17z"/>
<path d="M2676 1568 c9 -18 59 -109 112 -202 l94 -169 -7 -111 c-3 -61 -9
-121 -12 -133 -5 -23 -4 -23 99 -23 l105 0 6 83 c4 45 7 101 7 125 0 37 13 62
108 204 87 130 108 157 111 137 4 -29 -17 -483 -25 -521 l-6 -28 110 0 109 0
7 248 c5 136 11 286 15 335 l6 87 -191 0 -190 0 -69 -121 -69 -121 -53 113
c-29 61 -53 116 -53 120 0 5 -52 9 -115 9 l-116 0 17 -32z"/>
<path d="M3540 1473 c0 -130 -15 -408 -26 -495 l-6 -48 270 0 269 0 7 46 c3
26 6 59 6 73 l0 26 -165 -3 -165 -4 0 66 0 66 139 0 139 0 6 31 c3 17 6 49 6
70 l0 39 -141 0 -142 0 7 46 c3 26 6 53 6 60 0 11 33 14 165 14 l165 0 0 70 0
70 -270 0 -270 0 0 -127z"/>
<path d="M4100 1478 c0 -128 -15 -418 -26 -500 l-6 -48 100 0 99 0 7 53 c3 28
6 109 6 178 0 69 3 167 6 217 l7 92 69 0 c67 0 105 -11 120 -34 16 -23 8 -75
-15 -102 -20 -23 -34 -28 -84 -32 l-61 -4 40 -112 c22 -61 50 -142 62 -181
l22 -70 107 -3 c59 -1 107 1 107 6 0 5 -24 62 -54 128 -77 172 -76 157 -12
192 40 23 59 42 75 75 11 24 21 51 21 60 0 10 10 17 32 19 28 3 38 13 84 88
29 47 53 88 53 93 1 4 -30 7 -67 7 l-69 0 -18 -60 -18 -60 -17 28 c-48 78
-103 92 -370 92 l-200 0 0 -122z"/>
<path d="M5630 1488 c0 -135 -18 -491 -26 -532 l-6 -29 235 5 c223 4 237 6
283 29 83 41 118 150 77 236 -17 37 -65 73 -98 73 -15 1 -11 6 15 19 49 27 76
59 89 107 19 73 -6 146 -63 180 -28 17 -57 19 -268 22 l-238 3 0 -113z m360
-38 c27 -27 25 -56 -5 -85 -21 -22 -33 -25 -95 -25 l-70 0 0 65 0 65 75 0 c62
0 79 -4 95 -20z m2 -257 c18 -16 25 -77 10 -99 -15 -23 -53 -34 -121 -34 l-71
0 0 75 0 75 82 0 c62 0 86 -4 100 -17z"/>
<path d="M5047 1430 c-56 -14 -83 -37 -102 -82 -30 -75 -7 -122 96 -199 38
-28 69 -56 69 -63 0 -38 -75 -48 -156 -20 -25 8 -48 13 -51 11 -3 -3 -2 -35 2
-71 l7 -65 47 -8 c25 -4 82 -8 126 -7 141 0 221 58 212 150 -5 51 -26 80 -94
129 -29 21 -61 47 -70 58 -17 18 -17 20 2 34 15 11 38 14 98 10 l77 -5 0 36
c0 62 -9 79 -43 86 -59 12 -182 15 -220 6z"/>
<path d="M2865 691 c20 -4 31 -13 33 -26 1 -11 -24 -109 -58 -219 -33 -109
-60 -206 -60 -216 0 -25 25 -43 51 -35 25 8 99 73 99 87 0 6 -20 -8 -45 -31
-46 -43 -65 -51 -65 -27 0 12 122 423 137 463 4 10 -9 13 -58 12 -46 -1 -55
-3 -34 -8z"/>
<path d="M3063 684 c35 -19 36 -10 -49 -279 -47 -148 -60 -201 -51 -207 21
-14 30 -3 52 63 12 35 30 79 39 97 9 18 14 37 11 42 -3 5 13 68 35 140 22 72
40 138 40 146 0 10 -14 14 -52 14 l-53 -1 28 -15z"/>
<path d="M3413 684 c35 -19 36 -10 -49 -279 -47 -148 -60 -201 -51 -207 21
-14 30 -3 52 63 12 35 30 79 39 97 9 18 14 37 11 42 -3 5 13 68 35 140 22 72
40 138 40 146 0 10 -14 14 -52 14 l-53 -1 28 -15z"/>
<path d="M3745 691 c20 -4 31 -13 33 -26 1 -11 -24 -109 -58 -219 -33 -109
-60 -206 -60 -216 0 -25 25 -43 51 -35 25 8 99 73 99 87 0 6 -20 -8 -45 -31
-46 -43 -65 -51 -65 -27 0 12 122 423 137 463 4 10 -9 13 -58 12 -46 -1 -55
-3 -34 -8z"/>
<path d="M1101 497 c-13 -6 -27 -22 -32 -34 -10 -27 12 -59 35 -50 18 7 22 42
6 52 -5 3 -10 10 -10 16 0 16 31 10 61 -12 16 -11 33 -17 39 -14 17 10 12 -2
-22 -52 -18 -26 -40 -70 -49 -97 -40 -116 46 -155 142 -65 36 33 39 34 39 14
0 -9 12 -27 26 -42 20 -20 31 -24 57 -19 64 13 116 86 143 202 16 72 12 107
-14 102 -15 -3 -17 -15 -14 -83 3 -75 1 -83 -27 -127 -37 -59 -75 -73 -103
-38 -31 39 -31 62 1 124 35 65 41 123 14 133 -38 15 -83 -77 -83 -169 0 -42
-4 -50 -37 -77 -120 -99 -156 48 -49 194 36 48 42 62 18 41 -21 -19 -24 -19
-58 -3 -41 20 -51 21 -83 4z m289 -42 c0 -20 -10 -55 -21 -78 -22 -41 -22 -41
-31 -17 -5 14 -6 40 -3 59 14 72 55 99 55 36z"/>
<path d="M1611 497 c-13 -6 -27 -22 -32 -34 -10 -27 12 -59 35 -50 18 7 22 42
6 52 -5 3 -10 10 -10 16 0 16 31 10 61 -12 16 -11 33 -17 39 -14 17 10 12 -2
-22 -52 -18 -26 -40 -70 -49 -97 -40 -116 46 -155 142 -65 36 33 39 34 39 14
0 -9 12 -27 26 -42 20 -20 31 -24 57 -19 64 13 116 86 143 202 16 72 12 107
-14 102 -15 -3 -17 -15 -14 -83 3 -75 1 -83 -27 -127 -37 -59 -75 -73 -103
-38 -31 39 -31 62 1 124 35 65 41 123 14 133 -38 15 -83 -77 -83 -169 0 -42
-4 -50 -37 -77 -120 -99 -156 48 -49 194 36 48 42 62 18 41 -21 -19 -24 -19
-58 -3 -41 20 -51 21 -83 4z m289 -42 c0 -20 -10 -55 -21 -78 -22 -41 -22 -41
-31 -17 -5 14 -6 40 -3 59 14 72 55 99 55 36z"/>
<path d="M2131 497 c-13 -6 -27 -22 -32 -34 -10 -27 12 -59 35 -50 18 7 22 42
6 52 -5 3 -10 10 -10 16 0 16 31 10 61 -12 16 -11 33 -17 39 -14 17 10 12 -2
-22 -52 -18 -26 -40 -70 -49 -97 -40 -116 46 -155 142 -65 36 33 39 34 39 14
0 -9 12 -27 26 -42 20 -20 31 -24 57 -19 64 13 116 86 143 202 16 72 12 107
-14 102 -15 -3 -17 -15 -14 -83 3 -75 1 -83 -27 -127 -37 -59 -75 -73 -103
-38 -31 39 -31 62 1 124 35 65 41 123 14 133 -38 15 -83 -77 -83 -169 0 -42
-4 -50 -37 -77 -120 -99 -156 48 -49 194 36 48 42 62 18 41 -21 -19 -24 -19
-58 -3 -41 20 -51 21 -83 4z m289 -42 c0 -20 -10 -55 -21 -78 -22 -41 -22 -41
-31 -17 -5 14 -6 40 -3 59 14 72 55 99 55 36z"/>
<path d="M3165 498 c-29 -15 -75 -60 -87 -83 -6 -11 10 -1 35 23 49 44 77 53
77 25 0 -9 -16 -67 -37 -128 -41 -127 -40 -151 9 -141 32 6 98 60 98 80 0 5
-15 -4 -33 -22 -65 -63 -72 -39 -27 93 34 100 38 150 14 159 -21 8 -25 7 -49
-6z"/>
<path d="M3515 498 c-29 -15 -75 -60 -87 -83 -6 -11 10 -1 35 23 49 44 77 53
77 25 0 -9 -16 -67 -37 -128 -41 -127 -40 -151 9 -141 32 6 98 60 98 80 0 5
-15 -4 -33 -22 -65 -63 -72 -39 -27 93 34 100 38 150 14 159 -21 8 -25 7 -49
-6z"/>
<path d="M3964 496 c-128 -57 -157 -280 -40 -302 73 -13 165 64 182 153 20
107 -56 188 -142 149z m92 -31 c12 -18 14 -35 9 -67 -20 -124 -106 -223 -153
-176 -18 18 -14 102 8 159 36 97 101 137 136 84z"/>
<path d="M4191 489 c-27 -26 -25 -64 4 -64 16 0 20 6 17 33 -3 38 0 39 37 11
16 -12 34 -18 40 -15 17 11 13 0 -18 -51 -31 -50 -61 -131 -61 -162 0 -22 30
-51 54 -51 28 0 92 37 119 69 63 75 98 211 63 240 -29 25 -40 0 -25 -57 11
-44 10 -56 -5 -96 -22 -56 -91 -128 -120 -124 -47 7 -21 193 34 243 11 10 20
25 20 33 0 13 -3 13 -18 -1 -23 -21 -41 -21 -66 -2 -27 21 -48 19 -75 -6z"/>
<path d="M4624 496 c-32 -14 -91 -80 -117 -131 -51 -101 -16 -187 69 -171 32
7 113 71 102 81 -3 3 -21 -10 -41 -30 -37 -37 -76 -46 -97 -20 -14 17 -5 105
11 105 6 0 7 5 4 10 -10 17 41 117 69 135 48 32 74 -4 40 -53 -9 -13 -35 -37
-58 -54 -31 -23 -35 -29 -16 -23 37 11 88 44 105 68 21 30 19 74 -4 87 -24 13
-29 12 -67 -4z"/>
<path d="M4791 497 c-13 -6 -27 -22 -32 -34 -10 -27 12 -59 35 -50 18 7 22 42
6 52 -5 3 -10 10 -10 16 0 16 31 10 61 -12 16 -11 33 -17 39 -14 17 10 12 -2
-22 -52 -18 -26 -40 -70 -49 -97 -40 -116 46 -155 142 -65 36 33 39 34 39 14
0 -9 12 -27 26 -42 20 -20 31 -24 57 -19 64 13 116 86 143 202 16 72 12 107
-14 102 -15 -3 -17 -15 -14 -83 3 -75 1 -83 -27 -127 -37 -59 -75 -73 -103
-38 -31 39 -31 62 1 124 35 65 41 123 14 133 -38 15 -83 -77 -83 -169 0 -42
-4 -50 -37 -77 -120 -99 -156 48 -49 194 36 48 42 62 18 41 -21 -19 -24 -19
-58 -3 -41 20 -51 21 -83 4z m289 -42 c0 -20 -10 -55 -21 -78 -22 -41 -22 -41
-31 -17 -5 14 -6 40 -3 59 14 72 55 99 55 36z"/>
<path d="M5301 491 c-23 -23 -55 -81 -48 -87 2 -3 14 11 25 31 40 67 54 45 77
-127 l17 -128 -37 -49 c-40 -56 -90 -101 -110 -101 -7 0 -16 12 -19 26 -10 37
-41 28 -41 -11 0 -27 3 -30 35 -33 28 -2 43 4 76 32 129 110 295 466 218 466
-11 0 -14 -16 -14 -65 0 -51 -7 -80 -29 -129 -16 -35 -33 -66 -38 -69 -6 -4
-16 42 -26 108 -21 154 -39 183 -86 136z"/>
<path d="M5649 487 c-100 -67 -133 -249 -53 -286 35 -16 54 -14 92 9 17 11 32
16 32 12 0 -18 -53 -188 -62 -199 -5 -6 -22 -14 -36 -16 -15 -2 14 -4 63 -5
50 0 79 3 65 7 -14 4 -26 14 -28 24 -2 9 24 118 57 243 34 124 61 227 61 230
0 2 -6 4 -14 4 -7 0 -19 -13 -26 -30 -7 -16 -15 -30 -17 -30 -3 0 -18 14 -33
30 -34 36 -56 38 -101 7z m96 -17 c14 -16 17 -31 13 -83 -11 -127 -90 -215
-143 -157 -14 16 -17 31 -13 83 11 129 89 216 143 157z"/>
<path d="M6175 494 c-90 -46 -161 -177 -141 -257 7 -31 54 -51 96 -42 31 7
100 66 100 86 0 5 -17 -8 -38 -31 -68 -70 -121 -46 -107 49 13 89 74 191 115
191 9 0 22 -12 29 -26 12 -28 34 -28 40 1 3 20 -23 45 -48 45 -9 0 -29 -7 -46
-16z"/>
<path d="M6404 496 c-128 -57 -157 -280 -40 -302 73 -13 165 64 182 153 20
107 -56 188 -142 149z m92 -31 c12 -18 14 -35 9 -67 -20 -124 -106 -223 -153
-176 -18 18 -14 102 8 159 36 97 101 137 136 84z"/>
<path d="M6658 482 c-18 -17 -41 -45 -52 -64 -15 -28 -12 -26 24 15 73 83 78
59 20 -112 -22 -65 -40 -121 -40 -125 0 -3 8 -6 18 -6 13 0 27 21 50 78 77
187 162 280 162 177 0 -28 -40 -171 -67 -242 -3 -8 3 -13 15 -13 15 0 25 14
42 57 59 149 130 253 164 240 19 -8 14 -38 -26 -156 -42 -127 -35 -160 30
-127 39 20 92 65 92 78 0 5 -19 -7 -42 -26 -23 -20 -48 -36 -56 -36 -17 0 -16
4 27 144 17 55 29 107 26 117 -16 51 -88 24 -139 -52 l-33 -50 1 57 c1 41 -3
59 -15 67 -25 16 -69 -12 -112 -73 -31 -45 -37 -50 -30 -25 4 17 8 46 8 65 0
46 -23 50 -67 12z"/>
<path d="M2622 278 c-30 -30 1 -94 33 -68 18 15 20 51 3 68 -15 15 -21 15 -36
0z"/>
<path d="M5902 278 c-30 -30 1 -94 33 -68 18 15 20 51 3 68 -15 15 -21 15 -36
0z"/>
</g>
</svg>
