<?xml version="1.0" standalone="no"?>
<!DOCTYPE svg PUBLIC "-//W3C//DTD SVG 20010904//EN"
 "http://www.w3.org/TR/2001/REC-SVG-20010904/DTD/svg10.dtd">
<svg version="1.0" xmlns="http://www.w3.org/2000/svg"
 width="651.200000pt" height="468.800000pt" viewBox="0 0 651.200000 468.800000"
 preserveAspectRatio="xMidYMid meet">
<metadata>
Created by potrace 1.13, written by Peter Selinger 2001-2015
</metadata>
<g transform="translate(0.000000,468.800000) scale(0.080000,-0.080000)"
fill="#000000" stroke="none">
<path d="M2753 5851 c-318 -51 -571 -265 -673 -568 -42 -127 -52 -291 -25
-424 60 -298 270 -533 565 -631 89 -30 104 -32 245 -32 116 -1 165 3 215 18
305 85 534 321 606 623 23 95 23 267 1 365 -73 313 -315 561 -619 633 -78 18
-245 27 -315 16z m286 -531 c188 -106 350 -204 361 -217 31 -40 27 -115 -7
-152 -23 -24 -558 -348 -670 -405 -18 -9 -51 -16 -74 -16 -33 0 -47 6 -74 33
l-32 32 -8 416 c-8 463 -8 465 58 495 60 27 91 14 446 -186z"/>
<path d="M2770 5026 c0 -91 2 -166 4 -166 2 0 67 38 145 84 l142 84 -113 63
c-62 34 -128 71 -145 82 l-33 19 0 -166z"/>
<path d="M4575 5850 c-199 -32 -401 -148 -525 -303 -68 -85 -135 -223 -161
-332 -28 -120 -23 -323 11 -430 89 -280 310 -495 585 -569 96 -27 275 -32 375
-12 326 66 580 313 655 637 24 106 22 281 -5 384 -79 305 -307 531 -615 610
-76 19 -241 27 -320 15z m-195 -723 c65 -32 76 -144 18 -192 -43 -37 -116 -35
-159 3 -58 51 -44 165 24 192 32 13 88 12 117 -3z m374 3 c71 -26 86 -139 27
-192 -25 -23 -41 -28 -80 -28 -94 0 -146 83 -104 167 28 57 91 79 157 53z
m406 -17 c40 -35 50 -94 26 -145 -20 -42 -51 -58 -110 -58 -81 0 -128 67 -106
150 21 79 128 108 190 53z"/>
<path d="M2232 3944 c-57 -28 -96 -69 -123 -129 -17 -38 -19 -88 -19 -846 0
-898 -3 -863 69 -937 20 -21 55 -47 76 -57 39 -20 72 -20 1435 -23 1282 -2
1399 -1 1439 14 55 21 116 75 144 128 l22 41 3 815 2 815 -30 61 c-17 35 -45
73 -65 88 -78 60 19 56 -1503 56 l-1398 0 -52 -26z m436 -306 l-3 -93 -92 -3
-93 -3 0 96 0 95 95 0 96 0 -3 -92z m370 0 l-3 -93 -92 -3 -93 -3 0 96 0 95
95 0 96 0 -3 -92z m370 0 l-3 -93 -92 -3 -93 -3 0 96 0 95 95 0 96 0 -3 -92z
m370 0 l-3 -93 -92 -3 -93 -3 0 96 0 95 95 0 96 0 -3 -92z m370 0 l-3 -93 -92
-3 -93 -3 0 96 0 95 95 0 96 0 -3 -92z m370 0 l-3 -93 -92 -3 -93 -3 0 96 0
95 95 0 96 0 -3 -92z m370 0 l-3 -93 -92 -3 -93 -3 0 96 0 95 95 0 96 0 -3
-92z m-28 -775 c0 -463 -2 -501 -19 -539 -22 -49 -78 -97 -130 -113 -52 -15
-1999 -16 -2054 0 -47 13 -115 72 -134 116 -10 26 -13 136 -13 533 l0 500
1175 0 1175 0 0 -497z"/>
<path d="M2574 3287 c-2 -7 -3 -218 -2 -469 3 -443 4 -457 24 -484 11 -15 33
-37 48 -48 27 -21 35 -21 1019 -24 1095 -3 1047 -5 1102 59 l25 31 0 474 0
474 -1105 0 c-897 0 -1107 -2 -1111 -13z"/>
<path d="M5960 3763 c-14 -3 -125 -62 -247 -131 l-222 -127 2 -544 2 -544 215
-125 c199 -116 220 -126 275 -130 51 -3 65 0 94 20 19 12 44 36 55 51 21 28
21 37 24 700 2 370 0 686 -3 704 -14 78 -112 141 -195 126z"/>
</g>
</svg>
